<svg width="30" height="20" viewBox="0 0 30 20" fill="none" xmlns="http://www.w3.org/2000/svg">
<path fill-rule="evenodd" clip-rule="evenodd" d="M18.0243 0.967751L18.2322 0.732233C19.1334 -0.168977 20.5515 -0.238301 21.5322 0.524262L21.7678 0.732233L29.2678 8.23223L29.3713 8.34213L29.5092 8.51173L29.6883 8.78984L29.8219 9.07166L29.9104 9.33502L29.9827 9.70476L30 10L29.993 10.1881L29.9494 10.5018L29.8757 10.7804L29.7658 11.0581L29.635 11.3018L29.4508 11.5636L29.2678 11.7678L21.7678 19.2678C20.7915 20.2441 19.2085 20.2441 18.2322 19.2678C17.331 18.3666 17.2617 16.9485 18.0243 15.9678L18.2322 15.7322L21.4625 12.5H2.5C1.11929 12.5 0 11.3807 0 10C0 8.61929 1.11929 7.5 2.5 7.5H21.4625L18.2322 4.26777C17.331 3.36656 17.2617 1.94848 18.0243 0.967751L18.2322 0.732233L18.0243 0.967751Z" fill="#BDCFDB"/>
</svg>
