<svg width="859" height="169" viewBox="0 0 859 169" fill="none" xmlns="http://www.w3.org/2000/svg">
<path d="M59.5203 56.408V41.3552H1.72828V56.408H21.8883V131H39.3603V56.408H59.5203ZM120.321 41.3552H70.5925V131H120.321V115.947H88.0645V91.4864H118.977V76.4336H88.0645V56.408H120.321V41.3552ZM154.74 41.3552H137.268V131H154.74V91.0832H192.64V131H210.112V41.3552H192.64V76.0304H154.74V41.3552ZM227.092 107.614H262.036V92.5616H227.092V107.614Z" fill="#8DB932"/>
<path d="M344.067 107.346C338.826 113.528 331.434 117.157 323.101 117.157C308.048 117.157 292.726 106.405 292.726 86.5136C292.726 69.9824 304.419 55.1984 322.429 55.1984C325.654 55.1984 335.869 55.8704 344.067 65.2784V44.8496C335.869 40.4144 328.342 39.3392 322.026 39.3392C309.258 39.3392 298.102 42.6992 289.098 51.1664C281.437 58.2896 274.717 69.9824 274.717 86.2448C274.717 99.416 278.749 110.571 289.098 120.517C296.624 127.64 306.166 133.016 321.891 133.016C331.568 133.016 338.691 130.597 344.067 127.774V107.346ZM360.13 41.3552V131H405.288V115.947H377.602V41.3552H360.13ZM417.355 41.3552V131H434.827V41.3552H417.355ZM450.717 131H468.458L477.597 75.7616L500.579 131H506.493L530.55 75.7616L538.614 131H556.355L541.302 41.3552H528.669L503.805 98.3408L480.016 41.3552H467.382L450.717 131ZM633.248 131H652.064L614.566 41.3552H600.857L562.284 131H581.235L589.164 112.184H625.318L633.248 131ZM594.675 97.9376L607.443 65.6816L620.211 97.9376H594.675ZM706.32 56.408V41.3552H648.528V56.408H668.688V131H686.16V56.408H706.32ZM711.004 122.264C711.004 128.178 715.574 132.747 721.488 132.747C727.401 132.747 731.971 128.178 731.971 122.264C731.971 116.35 727.401 111.781 721.488 111.781C715.574 111.781 711.004 116.35 711.004 122.264ZM746.211 131H762.608V103.045C762.608 99.0128 762.742 94.04 765.833 90.1424C769.059 86.1104 773.628 85.4384 776.72 85.4384C780.08 85.4384 782.23 86.1104 784.38 87.5888L786.531 72.2672C784.649 71.5952 782.364 70.9232 779.542 70.9232C775.644 70.9232 772.419 71.864 769.865 73.4768C768.656 74.1488 765.161 76.568 762.608 81.5408V72.8048H746.211V131ZM794.642 72.8048V108.421C794.642 113.662 795.314 120.651 801.765 126.296C807.141 131 815.743 132.882 822.866 132.882C829.989 132.882 838.591 131 843.967 126.296C850.418 120.651 851.09 113.662 851.09 108.421V72.8048H834.693V105.733C834.693 108.824 834.425 112.99 831.199 115.947C829.183 117.694 825.957 118.904 822.866 118.904C819.775 118.904 816.549 117.694 814.533 115.947C811.308 112.99 811.039 108.824 811.039 105.733V72.8048H794.642Z" fill="white"/>
</svg>
